<svg xmlns="http://www.w3.org/2000/svg" width="640" height="320" font-family="Segoe UI, system-ui, sans-serif" viewBox="0 0 1280 640">
  <circle cx="260" cy="320" r="200" fill="#f1fff7"/>
  <g fill="none" stroke="#092e20" stroke-linecap="round" stroke-linejoin="round" stroke-width="2">
    <path stroke="none" d="M130 170h264v264H130z"/>
    <path stroke-width="22"
          d="M240 203a11 11 0 1 0 22 0 11 11 0 0 0-22 0M163 324l44 11 5.5-5.5M262 368v-33l-33-32.153L237.25 247"/>
    <path stroke-width="22"
          d="M196 280v-22l44-11 27.5 27.5L295 280M361 412a11 11 0 0 0-11-11H174a11 11 0 0 0-11 11M328 401l11-121 22-11"/>
  </g>
  <text x="241" y="100" font-size="64" font-weight="bold" transform="matrix(1.6 0 0 1.6 120 120)" fill="#f1fff7">
    Django
  </text>
  <text x="241" y="190" font-size="90" font-weight="bold" transform="matrix(1.6 0 0 1.6 120 120)" fill="#c9d1d9">
    Threadmill
  </text>
  <text x="241" y="224" font-size="18" font-style="italic" transform="matrix(1.6 0 0 1.6 120 120)" fill="#c9d1d9">
    Durable high-performance task backend for Django.
  </text>
</svg>
